<svg xmlns="http://www.w3.org/2000/svg" width="1200" height="630" viewBox="0 0 1200 630" role="img" aria-labelledby="title desc">
  <title id="title">/bloom Documentation</title>
  <desc id="desc">Documentation for Bloom.</desc>
  <rect width="1200" height="630" fill="#f1ece1"/>
  <path d="M0 0h1200v630H0z" fill="#f1ece1"/>
  <g opacity="0.18" stroke="#8a2a3a" stroke-width="1">
    <path d="M96 95H1104"/>
    <path d="M96 535H1104"/>
    <path d="M96 95V535"/>
    <path d="M1104 95V535"/>
  </g>
  <g transform="translate(140 138) scale(0.3) translate(-151.26 -151.26)" stroke-linejoin="round" stroke-linecap="round">
    <path d="M 24.58 0 C 96.09 141.31 209.14 141.31 282.62 0" fill="none" stroke="#7a2230" stroke-width="30" transform="translate(512 512) rotate(-72.500) scale(1.24)"/>
    <path d="M 24.58 0 C 96.09 141.31 209.14 141.31 282.62 0 C 209.14 -141.31 96.09 -141.31 24.58 0 Z" fill="#9d2d3f" transform="translate(512 512) rotate(-12.500) scale(1.24)"/>
    <path d="M 24.58 0 C 96.09 141.31 209.14 141.31 282.62 0 C 209.14 -141.31 96.09 -141.31 24.58 0 Z" fill="none" stroke="#7a2230" stroke-width="30" transform="translate(512 512) rotate(47.500) scale(1.24)"/>
    <path d="M 24.58 0 C 96.09 141.31 209.14 141.31 282.62 0 C 209.14 -141.31 96.09 -141.31 24.58 0 Z" fill="#9d2d3f" transform="translate(512 512) rotate(107.500) scale(1.24)"/>
    <path d="M 24.58 0 C 96.09 141.31 209.14 141.31 282.62 0 C 209.14 -141.31 96.09 -141.31 24.58 0 Z" fill="none" stroke="#7a2230" stroke-width="30" transform="translate(512 512) rotate(167.500) scale(1.24)"/>
    <path d="M 24.58 0 C 96.09 141.31 209.14 141.31 282.62 0 C 209.14 -141.31 96.09 -141.31 24.58 0 Z" fill="#9d2d3f" transform="translate(512 512) rotate(227.500) scale(1.24)"/>
    <path d="M 282.62 0 C 209.14 -141.31 96.09 -141.31 24.58 0" fill="none" stroke="#7a2230" stroke-width="30" transform="translate(512 512) rotate(-72.500) scale(1.24)"/>
  </g>
  <text x="372" y="276" fill="#8a2a3a" font-family="Instrument Serif, Georgia, 'Times New Roman', serif" font-size="122" font-weight="400" font-style="normal" letter-spacing="-4.3">/</text>
  <text x="402" y="276" fill="#141310" font-family="Instrument Serif, Georgia, 'Times New Roman', serif" font-size="122" font-weight="400" font-style="italic" letter-spacing="-4.3">bloom</text>
  <text x="382" y="360" fill="#6b6559" font-family="Inter Tight, Arial, sans-serif" font-size="34" font-weight="400" letter-spacing="1.6">Documentation</text>
</svg>
